# xmcd
#
# Track frame offsets: 
#        150
#        16903
#        30692
#        42111
#        52687
#        68092
#        81379
#        98017
#        111106
#        127615
#        143765
#        157254
#
# Disc length: 2295 seconds
#
# Revision: 0
# Processed by: cddbd v1.5.2PL0 Copyright (c) Steve Scherf et al.
# Submitted via: ExactAudioCopy v1.0b1
#
DISCID=8e08f50c
DTITLE=Краси Йорданов - Черен дракон [Искахте го двоен] CD2 - Сериозен
DTITLE=диск
DYEAR=2013
DGENRE=Bard music
TTITLE0=Жребци (текст: Добромир Тонев)
TTITLE1=Песен за дъжда
TTITLE2=Там, на голямата дюна
TTITLE3=Зимна молитва
TTITLE4=Привечер (текст: Павел Матев)
TTITLE5=Кара дере блус
TTITLE6=Къмпинг
TTITLE7=Пустиня (текст: Валери Станков)
TTITLE8=Само за теб
TTITLE9=Въздигащият се ангел (текст: Гриша Трифонов)
TTITLE10=Ще ме намериш ли? (текст: Гриша Трифонов)
TTITLE11=Скачане в пропаст  (текст: Румен Денев)
EXTD=
EXTT0=
EXTT1=
EXTT2=
EXTT3=
EXTT4=
EXTT5=
EXTT6=
EXTT7=
EXTT8=
EXTT9=
EXTT10=
EXTT11=
PLAYORDER=
